<svg width="44" height="44" viewBox="0 0 44 44" fill="none" xmlns="http://www.w3.org/2000/svg">
<path d="M25.2945 5.12875C23.0984 5.12875 20.9923 6.00113 19.4395 7.55398C17.8866 9.10683 17.0143 11.2129 17.0143 13.409C17.0143 19.8898 23.3365 27.687 24.9929 29.6019C25.0819 29.7037 25.2075 29.7661 25.3423 29.7756C25.4771 29.785 25.6102 29.7407 25.7125 29.6523L25.7629 29.6019C27.3973 27.6797 33.5757 19.8889 33.5757 13.409C33.5757 12.3215 33.3615 11.2447 32.9453 10.2401C32.5291 9.23541 31.9191 8.32256 31.1501 7.55366C30.3811 6.78475 29.4682 6.17485 28.4635 5.75879C27.4588 5.34272 26.382 5.12863 25.2945 5.12875ZM25.2945 16.9125C24.4907 16.9123 23.705 16.6738 23.0367 16.2271C22.3685 15.7804 21.8477 15.1456 21.5401 14.403C21.2326 13.6603 21.1522 12.8432 21.3091 12.0548C21.4659 11.2665 21.853 10.5423 22.4214 9.97397C22.9898 9.40559 23.7139 9.01851 24.5022 8.86165C25.2906 8.70479 26.1078 8.7852 26.8504 9.09272C27.5931 9.40024 28.2279 9.92105 28.6745 10.5893C29.1212 11.2576 29.3597 12.0433 29.3599 12.8471V12.8572C29.3575 13.9337 28.9281 14.9653 28.1659 15.7256C27.4037 16.4859 26.371 16.9127 25.2945 16.9125Z" stroke="#3D3E48" stroke-width="2" stroke-linecap="round" stroke-linejoin="round"/>
<path d="M33.4162 15.2882L34.4932 15.2148L38.9583 37.2231L29.678 38.8713L15.0892 37.3294L5.04166 38.8713L7.75316 16.2782L15.9931 15.2148L17.1747 15.2735M15.9931 15.2148L15.4046 37.3633M29.678 38.8713L28.1105 26.5668" stroke="#3D3E48" stroke-width="2" stroke-linecap="round" stroke-linejoin="round"/>
</svg>
