<svg width="44" height="40" viewBox="0 0 44 40" fill="none" xmlns="http://www.w3.org/2000/svg">
<path fill-rule="evenodd" clip-rule="evenodd" d="M23 4L7.98412 20.7943L19.4682 33.6385L18.6378 34.5672C18.3888 34.8444 18.0518 35 17.7005 35C17.3492 35 17.0122 34.8444 16.7633 34.5672L5.38695 21.8436C5.13913 21.5651 5 21.1882 5 20.7953C5 20.4024 5.13913 20.0255 5.38695 19.747L18.53 5.0473C19.0442 4.47227 20.0636 4 20.7915 4H23ZM27.9526 4H38.6614C39.0161 4.00104 39.3561 4.15752 39.6069 4.43523C39.8577 4.71293 39.9991 5.08929 40 5.48202V17.3382C40 18.1523 39.5752 19.2905 39.0541 19.8675L25.7769 34.5672C25.5254 34.8444 25.185 35 24.8301 35C24.4752 35 24.1348 34.8444 23.8832 34.5672L12.3909 21.8436C12.1405 21.5651 12 21.1882 12 20.7953C12 20.4024 12.1405 20.0255 12.3909 19.747L25.668 5.0473C26.1874 4.47227 27.2172 4 27.9526 4ZM30.9436 15.6301C31.2685 15.7792 31.6167 15.8561 31.9684 15.8562C32.6787 15.8564 33.3599 15.5443 33.8624 14.9884C34.3648 14.4326 34.6471 13.6785 34.6474 12.8921C34.6476 12.1058 34.3657 11.3515 33.8636 10.7953C33.3615 10.239 32.6805 9.92638 31.9702 9.92612C31.6185 9.92599 31.2702 10.0026 30.9452 10.1514C30.6203 10.3003 30.325 10.5186 30.0762 10.7939C29.8274 11.0691 29.6301 11.3959 29.4954 11.7556C29.3607 12.1153 29.2913 12.5008 29.2912 12.8902C29.2911 13.2795 29.3602 13.6651 29.4947 14.0249C29.6292 14.3847 29.8264 14.7116 30.075 14.987C30.3236 15.2625 30.6187 15.481 30.9436 15.6301Z" fill="#3D3E48"/>
</svg>
