<svg width="40" height="40" viewBox="0 0 40 40" fill="none" xmlns="http://www.w3.org/2000/svg">
<path d="M10.8333 12.6667C9.91666 12.6667 8.08332 13.2167 8.08332 15.4167C8.08332 17.6167 9.91666 18.1667 10.8333 18.1667M1.66666 29.1667V34.6667C1.66666 35.6391 2.05296 36.5717 2.7406 37.2594C3.42823 37.947 4.36086 38.3333 5.33332 38.3333H25.5M1.66666 29.1667V8.99999C1.66666 8.02753 2.05296 7.0949 2.7406 6.40726C3.42823 5.71963 4.36086 5.33332 5.33332 5.33332H10.8333M1.66666 29.1667C4.23882 28.7377 8.33449 28.6295 12.5658 29.6122M25.5 38.3333H31C31.9725 38.3333 32.9051 37.947 33.5927 37.2594C34.2803 36.5717 34.6667 35.6391 34.6667 34.6667V23.6667M25.5 38.3333C22.376 33.2587 17.3838 30.7287 12.5658 29.6122M12.5658 29.6122C14.5733 27.2875 17.5708 25.1205 21.9085 23.6667M16.3333 16.3333V7.16666C16.3333 6.68043 16.5265 6.21411 16.8703 5.87029C17.2141 5.52648 17.6804 5.33332 18.1667 5.33332H20L23.6667 1.66666H31L34.6667 5.33332H36.5C36.9862 5.33332 37.4525 5.52648 37.7964 5.87029C38.1402 6.21411 38.3333 6.68043 38.3333 7.16666V16.3333C38.3333 16.8196 38.1402 17.2859 37.7964 17.6297C37.4525 17.9735 36.9862 18.1667 36.5 18.1667H18.1667C17.6804 18.1667 17.2141 17.9735 16.8703 17.6297C16.5265 17.2859 16.3333 16.8196 16.3333 16.3333Z" stroke="#3D3E48" stroke-width="2" stroke-linecap="round" stroke-linejoin="round"/>
</svg>
