<svg width="20" height="20" viewBox="0 0 20 20" fill="none" xmlns="http://www.w3.org/2000/svg">
<path d="M10 1.8C12.6667 1.8 12.9833 1.80833 14.0417 1.85833C16.75 1.98333 18.0167 3.26667 18.1417 5.95833C18.1917 7.01667 18.2 7.33333 18.2 10C18.2 12.6667 18.1917 12.9833 18.1417 14.0417C18.0167 16.7333 16.7583 18.0167 14.0417 18.1417C12.9833 18.1917 12.675 18.2 10 18.2C7.33333 18.2 7.01667 18.1917 5.95833 18.1417C3.24167 18.0167 1.98333 16.725 1.85833 14.0417C1.80833 12.9833 1.8 12.675 1.8 10C1.8 7.33333 1.80833 7.01667 1.85833 5.95833C1.98333 3.26667 3.25 1.98333 5.95833 1.85833C7.01667 1.81667 7.33333 1.8 10 1.8ZM10 0C7.28333 0 6.94167 0.00833333 5.875 0.0583333C2.25 0.225 0.225 2.24167 0.0583333 5.875C0.00833333 6.94167 0 7.28333 0 10C0 12.7167 0.00833333 13.0583 0.0583333 14.125C0.225 17.7583 2.24167 19.775 5.875 19.9417C6.94167 19.9917 7.28333 20 10 20C12.7167 20 13.0583 19.9917 14.125 19.9417C17.75 19.775 19.775 17.7583 19.9417 14.125C19.9917 13.0583 20 12.7167 20 10C20 7.28333 19.9917 6.94167 19.9417 5.875C19.775 2.25 17.7583 0.225 14.125 0.0583333C13.0583 0.00833333 12.7167 0 10 0ZM10 4.86667C7.16667 4.86667 4.86667 7.16667 4.86667 10C4.86667 12.8333 7.16667 15.1333 10 15.1333C12.8333 15.1333 15.1333 12.8333 15.1333 10C15.1333 7.16667 12.8333 4.86667 10 4.86667ZM10 13.3333C8.15833 13.3333 6.66667 11.8417 6.66667 10C6.66667 8.15833 8.15833 6.66667 10 6.66667C11.8417 6.66667 13.3333 8.15833 13.3333 10C13.3333 11.8417 11.8417 13.3333 10 13.3333ZM15.3417 3.45833C14.675 3.45833 14.1417 3.99167 14.1417 4.65833C14.1417 5.325 14.6833 5.85833 15.3417 5.85833C16.0083 5.85833 16.5417 5.325 16.5417 4.65833C16.5417 3.99167 16 3.45833 15.3417 3.45833Z" fill="white"/>
</svg>
