<svg width="20" height="20" viewBox="0 0 20 20" fill="none" xmlns="http://www.w3.org/2000/svg">
<path d="M18.1911 0H1.8089C0.809948 0 0 0.809948 0 1.8089V18.1906C0 19.1901 0.809948 20 1.8089 20H18.1906C19.1895 20 20 19.1901 20 18.1906V1.8089C20 0.809948 19.1901 0 18.1911 0ZM6.189 17.2691C6.189 17.5597 5.9534 17.7958 5.6623 17.7958H3.42147C3.13089 17.7958 2.89476 17.5602 2.89476 17.2691V7.87434C2.89476 7.58377 3.13037 7.34764 3.42147 7.34764H5.66283C5.9534 7.34764 6.18953 7.58325 6.18953 7.87434V17.2691H6.189ZM4.54188 6.4623C3.36597 6.4623 2.41257 5.5089 2.41257 4.33298C2.41257 3.15707 3.36597 2.20419 4.54188 2.20419C5.7178 2.20419 6.6712 3.15759 6.6712 4.33351C6.6712 5.50942 5.7178 6.4623 4.54188 6.4623ZM17.901 17.3115C17.901 17.5791 17.6843 17.7958 17.4168 17.7958H15.012C14.7445 17.7958 14.5277 17.5791 14.5277 17.3115V12.9047C14.5277 12.2471 14.7204 10.0241 12.8099 10.0241C11.3277 10.0241 11.0272 11.5461 10.967 12.2288V17.3115C10.967 17.5791 10.7503 17.7958 10.4827 17.7958H8.15707C7.88953 17.7958 7.67277 17.5791 7.67277 17.3115V7.83194C7.67277 7.5644 7.88953 7.34764 8.15707 7.34764H10.4832C10.7508 7.34764 10.9675 7.5644 10.9675 7.83194V8.65131C11.5173 7.8267 12.334 7.19005 14.0728 7.19005C17.9236 7.19005 17.9016 10.788 17.9016 12.7644V17.3115H17.901Z" fill="white"/>
</svg>
