<svg width="244" height="62" viewBox="0 0 244 62" fill="none" xmlns="http://www.w3.org/2000/svg">
<path d="M35.3633 43.0862C35.3633 53.0096 39.068 62 51.9504 62C59.5282 62 64.1591 58.2681 66.6009 53.3488V61.1518H72.9157V18.6594H66.6009V42.238C66.6009 50.041 62.3067 56.8263 53.5501 56.8263C44.7093 56.8263 41.6782 50.6348 41.6782 42.238V18.7442H35.3633V43.0862Z" fill="#C57A5C"/>
<path d="M77.1796 23.7483H82.9051V49.7866C82.9051 57.1655 86.3572 61.1519 95.7032 61.1519H99.0711L99.0712 56.0629H97.1346C91.3249 56.0629 89.3041 54.2818 89.3041 48.9384V23.7483H99.0712V18.7442H89.3041V6.87004H82.9051V18.7442H77.1796V23.7483Z" fill="#C57A5C"/>
<path d="M101.706 47.9207C101.706 56.4022 107.936 61.9152 118.545 61.9152C128.733 61.9152 135.469 57.0807 135.469 49.2777C135.469 34.0958 108.947 39.3543 109.031 29.4309C108.947 24.9357 113.072 22.8153 118.461 22.8153C123.766 22.8153 127.891 25.6142 127.976 30.8728H134.038C134.038 23.6635 128.649 17.896 118.461 17.896C108.778 17.896 102.632 22.3912 102.632 29.4309C102.632 44.4432 128.986 39.0151 128.986 49.2777C129.07 54.7059 124.439 56.9959 118.461 56.9959C112.736 56.9959 107.852 54.2818 107.684 47.9207H101.706Z" fill="#C57A5C"/>
<path d="M145.863 8.99043C148.305 8.99043 150.326 7.03967 150.326 4.49521C150.326 2.03557 148.305 1.07447e-07 145.863 0C143.337 -1.11152e-07 141.401 2.03557 141.401 4.49521C141.401 7.03967 143.337 8.99043 145.863 8.99043ZM148.978 18.6594H142.663V61.1519H148.978V18.6594Z" fill="#C57A5C"/>
<path d="M155.806 39.8632C155.806 51.8222 163.132 61.9152 175.761 61.9152C183.255 61.9152 188.391 58.5226 191.254 53.4337V61.1519H197.653V1.69631H191.254L191.254 26.4624C188.391 21.2887 183.255 17.8112 175.761 17.8112C163.132 17.8112 155.806 27.9891 155.806 39.8632ZM162.205 39.8632C162.205 29.9398 167.931 23.2394 176.772 23.2394C185.528 23.2394 191.254 29.9398 191.254 39.8632C191.254 49.8714 185.528 56.5718 176.772 56.5718C167.931 56.5718 162.205 49.8714 162.205 39.8632Z" fill="#C57A5C"/>
<path d="M203.171 39.8632C203.171 51.2285 210.328 61.9152 223.968 61.9152C234.493 61.9152 241.06 55.6389 242.997 47.4966H236.514C234.998 53.264 230.451 56.8263 223.968 56.8263C215.548 56.8263 210.328 50.6348 209.739 42.0684H243.923C244.849 28.6676 237.356 17.896 223.968 17.896C210.328 17.896 203.171 28.5828 203.171 39.8632ZM209.823 37.4036C210.496 29.0917 215.633 22.985 223.968 22.985C232.135 22.985 236.935 28.7524 237.524 37.4884L209.823 37.4036Z" fill="#C57A5C"/>
<path d="M0 61.9152C16.7405 61.9152 30.3114 48.2449 30.3114 31.3817C30.3114 14.5185 16.7405 0.848148 2.65157e-06 0.848147L2.39378e-06 6.78522C13.4854 6.78522 24.4175 17.7974 24.4175 31.3817C24.4175 44.9659 13.4854 55.9781 2.57791e-07 55.9781L0 61.9152Z" fill="#C57A5C"/>
</svg>
