<?xml version="1.0" encoding="utf-8"?>
<!-- Generator: Adobe Illustrator 19.0.0, SVG Export Plug-In . SVG Version: 6.00 Build 0)  -->
<svg version="1.1" id="Layer_1" xmlns="http://www.w3.org/2000/svg" xmlns:xlink="http://www.w3.org/1999/xlink" x="0px" y="0px"
	 viewBox="0 0 348 307" style="enable-background:new 0 0 348 307;" xml:space="preserve">
<style type="text/css">
	.st0{fill:#FEFEFE;}
	.st1{fill:#183153;}
	.st2{fill:#FDFEFE;}
	.st3{fill:#FDFDFD;}
</style>
<g id="XMLID_40_">
	<path id="XMLID_72_" class="st0" d="M144.4,228.9C144.4,228.9,144.4,228.9,144.4,228.9c2,0,4,0.3,6,0c5.4-0.8,9.5,1.1,13,5.3
		c3.2,3.8,7,7.1,10.5,10.7c8.2,8.1,18.1,8.4,26.6,0.4c4.6-4.3,9.1-8.8,13.4-13.4c2-2.1,4-3.1,7-3c6.5,0.2,13,0.1,19.5,0
		c10.8-0.2,18.2-7.2,18.8-18c0.1-2.5,0-5,0-7.5c0-18,0-18,13.4-30.1c12.1-10.9,13-21.4,0.6-32c-11.1-9.5-15.6-19.9-14.3-34.5
		c1.3-14.8-6.6-22.8-21.3-21.5c-14.7,1.3-25.4-3.1-34.9-14.5c-9.8-11.7-20.8-11.7-30.6-0.1c-9.5,11.3-20.1,15.9-34.9,14.6
		c-14.6-1.4-22.8,6.8-21.5,21.4c1.3,14.8-3.1,25.4-14.5,34.9c-12,10.1-11,20.7,0.5,31.3c13.7,12.5,13.7,12.5,13.7,31
		c0,2.2-0.1,4.3,0,6.5c0.6,10.5,7,17.5,16.9,18.4C136.4,229.2,140.4,228.9,144.4,228.9z"/>
	<path id="XMLID_68_" class="st1" d="M144.4,228.9c-4,0-8,0.3-12-0.1c-10-0.9-16.3-7.9-16.9-18.4c-0.1-2.2,0-4.3,0-6.5
		c0-18.5,0-18.5-13.7-31c-11.6-10.6-12.5-21.2-0.5-31.3c11.4-9.6,15.8-20.2,14.5-34.9c-1.3-14.6,6.8-22.7,21.5-21.4
		c14.8,1.4,25.4-3.3,34.9-14.6c9.8-11.6,20.9-11.7,30.6,0.1c9.5,11.4,20.2,15.8,34.9,14.5c14.7-1.3,22.6,6.7,21.3,21.5
		c-1.3,14.6,3.1,25,14.3,34.5c12.4,10.6,11.5,21-0.6,32c-13.4,12.1-13.4,12.1-13.4,30.1c0,2.5,0.1,5,0,7.5
		c-0.6,10.8-7.9,17.9-18.8,18c-6.5,0.1-13,0.2-19.5,0c-2.9-0.1-5,0.9-7,3c-4.4,4.6-8.8,9.1-13.4,13.4c-8.5,8-18.4,7.7-26.6-0.4
		c-3.5-3.5-7.4-6.8-10.5-10.7c-3.5-4.2-7.6-6.1-13-5.3C148.5,229.2,146.4,228.9,144.4,228.9C144.4,228.9,144.4,228.9,144.4,228.9z
		 M196.4,139.5c0-7,0.1-14,0-20.9c-0.1-5.9-3.4-9.4-8.6-9.6c-5.4-0.1-9.3,3.4-9.3,9.4c-0.2,13.8-0.2,27.6,0,41.4
		c0.1,6.1,3.8,9.4,9.4,9.2c5.3-0.2,8.4-3.5,8.5-9.5C196.5,152.8,196.4,146.1,196.4,139.5z M199.4,193c0-7.5-4.7-12.1-12.2-12
		c-7.1,0.1-11.8,4.9-11.8,12.1c0,7.1,5.3,12.3,12.3,12.2C194.6,205.1,199.4,200,199.4,193z"/>
	<path id="XMLID_67_" class="st2" d="M196.5,139.5c0,5.9-0.1,11.8-0.1,17.6c0,3.2-0.1,6.6-2.2,9c-1.5,1.7-3.8,2.6-6.1,2.8
		c-3,0.2-6.1-0.8-7.9-3.2c-1.9-2.4-1.9-5.8-1.9-8.8c0-10.4,0-20.8,0-31.2c0-6.9-1-16.8,9.2-16.8c0.1,0,0.1,0,0.2,0
		c5.2,0.1,8.5,3.6,8.6,9.6C196.5,125.5,196.5,132.5,196.5,139.5z"/>
	<path id="XMLID_66_" class="st3" d="M199.4,193c0,7-4.8,12.1-11.7,12.2c-7,0.2-12.4-5.1-12.3-12.2c0-7.2,4.7-12,11.8-12.1
		C194.6,180.9,199.4,185.5,199.4,193z"/>
</g>
</svg>
