<svg width="272" height="123" viewBox="0 0 272 123" fill="none" xmlns="http://www.w3.org/2000/svg">
<path fill-rule="evenodd" clip-rule="evenodd" d="M43.3103 71.4307C35.7464 88.6503 28.7962 106.4 23.5754 120.81C22.9505 122.535 21.0458 123.426 19.3211 122.801C17.5964 122.176 16.7049 120.272 17.3298 118.547C22.3683 104.64 29.032 87.5719 36.3339 70.8042C24.8929 69.7014 12.7814 68.1668 0 66.1248L0.297034 59.5313C12.8047 58.6746 29.2418 56.432 44.6959 52.3975C48.2363 44.9535 51.835 37.8506 55.3938 31.4335C62.3646 18.864 69.4623 8.39216 75.9477 3.39265C79.1784 0.902025 83.0482 -0.830948 86.9955 0.411472C90.8816 1.63461 93.4347 5.31332 95.1662 10.0349C98.8479 20.075 96.703 28.8015 90.8491 35.9551C85.1695 42.8968 76.0916 48.2773 65.8842 52.4493C60.6966 54.5696 55.1209 56.4158 49.3918 58.0108C48.3131 60.3138 47.2404 62.6462 46.1768 64.9981C75.1152 67.2728 99.3239 66.6972 118.795 64.6893C147.746 61.7039 166.008 55.5758 173.8 51.1066C175.391 50.194 177.421 50.7441 178.334 52.3354C179.246 53.9266 178.696 55.9564 177.105 56.869C168.167 61.9951 148.86 68.267 119.477 71.2971C99.0545 73.4027 73.6604 73.954 43.3103 71.4307ZM39.1622 64.3987C39.8023 62.9693 40.4462 61.5455 41.0932 60.1293C36.1846 61.2761 31.2469 62.2521 26.4206 63.0712C30.7604 63.5743 35.0076 64.0154 39.1622 64.3987ZM53.2635 49.9331C56.7584 48.8265 60.1486 47.6173 63.3709 46.3002C73.1785 42.2916 81.0583 37.4311 85.7083 31.7483C90.1848 26.2773 91.743 19.9959 88.9293 12.3217C87.4133 8.18615 85.8699 7.02114 85.0012 6.7479C84.1945 6.49395 82.6518 6.61198 80.0036 8.65374C74.7299 12.7189 68.2007 22.0373 61.203 34.6553C58.5693 39.4044 55.9087 44.5458 53.2635 49.9331Z" fill="#114E60"/>
<path d="M67.3908 116.519C67.1601 116.964 66.868 117.395 66.5143 117.81C66.176 118.225 65.7839 118.594 65.338 118.917C64.9074 119.224 64.4461 119.478 63.954 119.678C63.462 119.863 62.9545 119.955 62.4317 119.955C61.5706 119.955 60.8171 119.793 60.1713 119.471C59.5408 119.148 59.0027 118.717 58.5567 118.179C58.1262 117.626 57.8033 116.995 57.588 116.288C57.3727 115.58 57.2651 114.835 57.2651 114.05V105.124C57.0498 106.108 56.8038 107.169 56.527 108.307C56.2502 109.43 55.9119 110.552 55.5121 111.674C55.1123 112.782 54.6433 113.85 54.1051 114.881C53.5669 115.911 52.9288 116.826 52.1907 117.626C51.4679 118.41 50.6376 119.04 49.6996 119.517C48.7616 119.978 47.6929 120.209 46.4935 120.209C45.0327 120.209 43.7256 119.932 42.5724 119.379C41.419 118.825 40.4349 118.063 39.62 117.095C38.8204 116.127 38.2053 114.98 37.7748 113.658C37.3595 112.32 37.152 110.875 37.152 109.322C37.152 107.477 37.4441 105.632 38.0285 103.786C38.6128 101.926 39.4124 100.142 40.4273 98.4352C41.4575 96.728 42.6723 95.144 44.0716 93.6834C45.4863 92.2227 47.024 90.9539 48.6847 89.8777C50.3454 88.8016 52.0907 87.9631 53.9206 87.3638C55.7658 86.7637 57.6264 86.4795 59.5024 86.5098H59.7792V87.5483C58.1646 87.6251 56.6116 87.9786 55.12 88.609C53.6284 89.2245 52.2291 90.0394 50.922 91.0543C49.6304 92.0536 48.4464 93.2147 47.37 94.5373C46.2936 95.8593 45.371 97.2661 44.6022 98.7578C43.8486 100.249 43.2566 101.787 42.8261 103.371C42.4109 104.955 42.2033 106.516 42.2033 108.053C42.2033 108.653 42.2417 109.299 42.3186 109.991C42.3955 110.668 42.5262 111.352 42.7107 112.043C42.8952 112.72 43.1336 113.374 43.4258 114.004C43.7179 114.619 44.0793 115.173 44.5099 115.665C44.9558 116.141 45.4709 116.526 46.0552 116.818C46.6396 117.095 47.3084 117.234 48.0619 117.234C48.9692 117.234 49.7918 116.956 50.5299 116.403C51.268 115.849 51.9369 115.104 52.5367 114.166C53.1363 113.227 53.6668 112.136 54.1282 110.891C54.6048 109.645 55.02 108.33 55.3737 106.946C55.7274 105.562 56.0195 104.155 56.2502 102.725C56.4962 101.28 56.6885 99.8959 56.8268 98.5732C56.9806 97.2513 57.0882 96.0283 57.1498 94.9064C57.2266 93.7682 57.2651 92.8146 57.2651 92.0455L62.0396 90.2933V114.811C62.0396 115.119 62.0704 115.427 62.1319 115.734C62.1934 116.042 62.301 116.326 62.4548 116.587C62.6086 116.834 62.8008 117.034 63.0314 117.187C63.2774 117.341 63.5773 117.418 63.9309 117.418C64.4692 117.418 64.9766 117.257 65.4533 116.933C65.93 116.611 66.3221 116.249 66.6296 115.849L67.3908 116.519Z" fill="black"/>
<path d="M77.7701 116.98C77.5855 117.379 77.3471 117.756 77.0556 118.11C76.7781 118.463 76.4629 118.779 76.1094 119.055C75.7558 119.332 75.3639 119.548 74.9328 119.701C74.518 119.87 74.0877 119.955 73.6412 119.955C72.4422 119.955 71.5657 119.624 71.0121 118.963C70.4739 118.287 70.2048 117.372 70.2048 116.218V88.079L74.4487 86.6028V116.334C74.4487 116.641 74.518 116.926 74.6568 117.187C74.7948 117.433 75.0406 117.556 75.3949 117.556C75.7484 117.556 76.0791 117.418 76.3861 117.141C76.7094 116.849 76.9626 116.564 77.1471 116.287L77.7701 116.98Z" fill="black"/>
<path d="M88.6112 116.98C88.4267 117.379 88.1883 117.756 87.896 118.11C87.6192 118.463 87.304 118.779 86.9505 119.055C86.5969 119.332 86.2043 119.548 85.774 119.701C85.3592 119.87 84.9281 119.955 84.4823 119.955C83.2829 119.955 82.4068 119.624 81.8532 118.963C81.3144 118.287 81.0457 117.372 81.0457 116.218V88.079L85.2898 86.6028V116.334C85.2898 116.641 85.3592 116.926 85.4972 117.187C85.6352 117.433 85.8817 117.556 86.2353 117.556C86.5888 117.556 86.9195 117.418 87.2273 117.141C87.5498 116.849 87.8037 116.564 87.9883 116.287L88.6112 116.98Z" fill="black"/>
<path d="M98.5061 120.209C97.368 120.209 96.2992 120.009 95.2998 119.609C94.316 119.194 93.4546 118.625 92.7165 117.902C91.9939 117.18 91.4174 116.334 90.9864 115.365C90.5716 114.381 90.3642 113.312 90.3642 112.159C90.3642 110.852 90.579 109.629 91.01 108.492C91.4403 107.338 92.0323 106.3 92.7859 105.378C93.555 104.455 94.454 103.656 95.4844 102.979C96.5302 102.302 97.6603 101.772 98.8752 101.388L99.5439 102.194C98.8523 102.702 98.2065 103.287 97.6064 103.948C97.0071 104.593 96.4837 105.301 96.0379 106.069C95.5921 106.823 95.2386 107.623 94.9773 108.468C94.716 109.299 94.5854 110.152 94.5854 111.029C94.5854 111.767 94.6924 112.543 94.9079 113.359C95.1234 114.174 95.446 114.919 95.877 115.596C96.3073 116.272 96.8454 116.834 97.4912 117.28C98.1526 117.71 98.9135 117.925 99.7749 117.925C100.543 117.925 101.205 117.787 101.758 117.51C102.327 117.234 102.796 116.857 103.165 116.38C103.534 115.903 103.812 115.349 103.996 114.719C104.181 114.073 104.272 113.397 104.272 112.689C104.272 111.859 104.111 111.013 103.788 110.152C103.465 109.276 103.02 108.468 102.45 107.73C101.897 106.992 101.243 106.377 100.49 105.885C99.7365 105.393 98.929 105.108 98.0677 105.032C98.6058 104.417 99.1984 103.848 99.8435 103.325C100.49 102.802 101.143 102.302 101.805 101.825C102.696 102.118 103.481 102.549 104.157 103.117C104.849 103.686 105.426 104.34 105.887 105.078C106.364 105.816 106.725 106.623 106.971 107.5C107.217 108.361 107.34 109.237 107.34 110.129C107.34 111.344 107.125 112.551 106.695 113.751C106.279 114.95 105.68 116.034 104.895 117.003C104.127 117.956 103.196 118.733 102.104 119.332C101.028 119.917 99.8288 120.209 98.5061 120.209Z" fill="black"/>
<path d="M133.312 104.709C133.312 105.186 133.25 105.716 133.127 106.3C133.019 106.869 132.859 107.376 132.643 107.823L127.269 119.355C127.177 119.525 127.046 119.633 126.877 119.678C126.723 119.74 126.554 119.771 126.369 119.771C126.154 119.771 125.946 119.732 125.746 119.655C125.546 119.579 125.408 119.433 125.331 119.217L121.733 106.508L118.527 119.055C118.404 119.317 118.227 119.517 117.996 119.655C117.781 119.793 117.535 119.863 117.258 119.863C117.058 119.863 116.866 119.824 116.682 119.748C116.513 119.671 116.405 119.525 116.359 119.309L112.3 106.347C112.238 106.162 112.153 105.97 112.046 105.77C111.953 105.555 111.83 105.362 111.677 105.193C111.538 105.009 111.377 104.863 111.193 104.755C111.023 104.632 110.823 104.57 110.592 104.57C110.285 104.57 110 104.655 109.739 104.824C109.493 104.993 109.27 105.17 109.07 105.355L108.609 104.755C108.839 104.324 109.132 103.924 109.485 103.555C109.839 103.171 110.231 102.833 110.662 102.54C111.092 102.248 111.546 102.018 112.022 101.849C112.514 101.68 113.014 101.595 113.522 101.595C113.952 101.595 114.314 101.718 114.605 101.964C114.898 102.21 115.144 102.51 115.344 102.864C115.544 103.217 115.705 103.594 115.828 103.994C115.966 104.394 116.082 104.755 116.175 105.078C116.635 106.523 117.089 107.977 117.535 109.437C117.996 110.898 118.45 112.343 118.896 113.774L121.18 104.524L120.603 102.679L124.478 101.388L128.26 114.811L130.429 109.853C130.521 109.622 130.598 109.329 130.659 108.976C130.721 108.607 130.752 108.299 130.752 108.053C130.752 107.131 130.514 106.339 130.037 105.677C129.575 105.016 128.953 104.486 128.169 104.086L130.798 100.442C131.659 100.872 132.289 101.456 132.689 102.194C133.104 102.918 133.312 103.755 133.312 104.709Z" fill="black"/>
<path d="M152.295 115.18C151.757 115.873 151.165 116.519 150.519 117.118C149.889 117.718 149.196 118.241 148.443 118.686C147.705 119.132 146.921 119.486 146.09 119.748C145.26 120.009 144.399 120.14 143.507 120.14C142.369 120.14 141.323 119.94 140.37 119.54C139.416 119.125 138.594 118.564 137.902 117.856C137.21 117.133 136.672 116.288 136.288 115.319C135.903 114.335 135.711 113.281 135.711 112.159C135.711 111.236 135.841 110.329 136.103 109.437C136.364 108.546 136.734 107.707 137.21 106.923C137.686 106.139 138.248 105.416 138.894 104.755C139.555 104.079 140.278 103.501 141.062 103.025C141.846 102.549 142.677 102.18 143.553 101.918C144.43 101.641 145.329 101.503 146.252 101.503C146.897 101.503 147.505 101.579 148.074 101.734C148.658 101.887 149.173 102.133 149.619 102.472C150.065 102.794 150.419 103.217 150.681 103.74C150.942 104.248 151.073 104.855 151.073 105.562C151.073 106.147 150.895 106.762 150.542 107.407C150.204 108.053 149.75 108.699 149.181 109.345C148.627 109.991 147.997 110.629 147.29 111.26C146.582 111.874 145.859 112.451 145.121 112.99C144.399 113.512 143.699 113.974 143.022 114.373C142.346 114.773 141.754 115.081 141.246 115.296C141.815 116.003 142.477 116.58 143.23 117.026C143.984 117.471 144.783 117.694 145.629 117.694C146.167 117.694 146.713 117.595 147.266 117.395C147.82 117.18 148.35 116.91 148.858 116.587C149.381 116.265 149.873 115.911 150.334 115.527C150.811 115.142 151.234 114.781 151.603 114.442L152.295 115.18ZM146.736 106.415C146.736 106.062 146.674 105.724 146.552 105.401C146.444 105.078 146.282 104.801 146.067 104.57C145.852 104.324 145.591 104.133 145.283 103.994C144.991 103.84 144.653 103.764 144.268 103.764C143.576 103.764 142.938 104.009 142.353 104.502C141.77 104.978 141.262 105.57 140.831 106.277C140.416 106.985 140.085 107.738 139.839 108.538C139.609 109.322 139.493 110.014 139.493 110.614C139.493 111.198 139.586 111.798 139.77 112.413C139.955 113.028 140.208 113.62 140.532 114.188C141.147 113.85 141.815 113.382 142.538 112.782C143.26 112.182 143.93 111.528 144.545 110.821C145.175 110.099 145.698 109.352 146.113 108.584C146.528 107.815 146.736 107.092 146.736 106.415Z" fill="black"/>
<path d="M173.815 116.933C173.63 117.333 173.392 117.71 173.099 118.063C172.808 118.418 172.485 118.733 172.131 119.01C171.778 119.286 171.386 119.509 170.955 119.678C170.54 119.832 170.109 119.909 169.663 119.909C168.448 119.909 167.564 119.579 167.01 118.917C166.472 118.241 166.203 117.325 166.203 116.172V115.758C165.942 116.28 165.642 116.803 165.304 117.325C164.966 117.849 164.573 118.317 164.127 118.733C163.697 119.148 163.205 119.486 162.651 119.748C162.113 120.009 161.505 120.14 160.829 120.14C159.799 120.14 158.891 119.94 158.107 119.54C157.338 119.125 156.692 118.579 156.17 117.902C155.647 117.21 155.247 116.411 154.97 115.504C154.709 114.597 154.578 113.643 154.578 112.644C154.578 111.352 154.778 110.052 155.178 108.746C155.578 107.438 156.162 106.254 156.931 105.193C157.7 104.133 158.645 103.271 159.768 102.61C160.891 101.933 162.174 101.595 163.62 101.595C164.512 101.595 165.373 101.811 166.203 102.241V88.079L170.47 86.6028V116.288C170.47 116.595 170.54 116.879 170.678 117.141C170.832 117.387 171.078 117.51 171.416 117.51C171.769 117.51 172.1 117.372 172.408 117.095C172.716 116.803 172.961 116.51 173.146 116.218L173.815 116.933ZM166.203 109.991V105.078C165.85 104.725 165.45 104.432 165.004 104.201C164.573 103.971 164.097 103.855 163.574 103.855C162.667 103.855 161.897 104.102 161.267 104.593C160.637 105.085 160.122 105.7 159.722 106.438C159.322 107.176 159.03 107.977 158.845 108.837C158.661 109.683 158.569 110.475 158.569 111.213C158.569 111.798 158.622 112.459 158.73 113.197C158.853 113.92 159.053 114.604 159.33 115.25C159.622 115.88 159.998 116.418 160.46 116.865C160.936 117.295 161.528 117.51 162.236 117.51C162.805 117.51 163.297 117.387 163.712 117.141C164.143 116.879 164.504 116.549 164.796 116.149C165.088 115.734 165.327 115.265 165.511 114.742C165.696 114.204 165.834 113.658 165.927 113.105C166.034 112.551 166.103 112.005 166.134 111.467C166.181 110.913 166.203 110.421 166.203 109.991Z" fill="black"/>
<path d="M208.828 85.8182C208.336 86.5563 207.752 87.2479 207.075 87.8945C206.399 88.5396 205.653 89.1086 204.838 89.601C204.038 90.0933 203.192 90.4852 202.301 90.7775C201.409 91.0543 200.517 91.1923 199.625 91.1923L199.094 91.2388C198.511 91.9769 198.064 92.6921 197.757 93.3837C197.449 94.0753 197.296 94.8909 197.296 95.829V110.567C197.296 112.613 196.857 114.435 195.98 116.034C195.12 117.618 193.844 118.986 192.152 120.14L191.391 119.264C191.652 118.971 191.86 118.641 192.014 118.272C192.167 117.887 192.283 117.495 192.359 117.095C192.436 116.695 192.483 116.296 192.498 115.896C192.528 115.48 192.544 115.088 192.544 114.719V98.5039C192.544 97.7813 192.69 97.0815 192.982 96.4054C193.29 95.7131 193.675 95.0599 194.135 94.4443C194.597 93.8295 195.104 93.2531 195.658 92.715C196.227 92.1769 196.772 91.6846 197.296 91.2388L189.661 91.1923C189.076 91.1923 188.554 91.2543 188.092 91.3768C187.647 91.4846 187.231 91.6462 186.847 91.861C186.463 92.0765 186.094 92.3459 185.74 92.6685C185.386 92.9918 185.025 93.3682 184.656 93.7992L183.986 93.084C184.494 92.3917 185.063 91.6617 185.694 90.8926C186.339 90.1235 187.032 89.4238 187.77 88.7935C188.523 88.1631 189.323 87.6406 190.169 87.225C191.029 86.8102 191.929 86.6028 192.867 86.6028H202.831C203.231 86.6028 203.677 86.5792 204.169 86.5334C204.677 86.4869 205.184 86.4102 205.692 86.3024C206.199 86.1946 206.675 86.0566 207.121 85.8876C207.583 85.7031 207.967 85.4721 208.275 85.1953L208.828 85.8182Z" fill="black"/>
<path d="M225.32 115.18C224.782 115.873 224.19 116.519 223.544 117.118C222.914 117.718 222.222 118.241 221.468 118.686C220.73 119.132 219.946 119.486 219.115 119.748C218.285 120.009 217.424 120.14 216.532 120.14C215.395 120.14 214.349 119.94 213.395 119.54C212.442 119.125 211.619 118.564 210.927 117.856C210.235 117.133 209.697 116.288 209.313 115.319C208.928 114.335 208.736 113.281 208.736 112.159C208.736 111.236 208.867 110.329 209.128 109.437C209.389 108.546 209.758 107.707 210.235 106.923C210.712 106.139 211.273 105.416 211.919 104.755C212.58 104.079 213.303 103.501 214.087 103.025C214.871 102.549 215.702 102.18 216.578 101.918C217.455 101.641 218.354 101.503 219.277 101.503C219.923 101.503 220.53 101.579 221.099 101.734C221.683 101.887 222.198 102.133 222.645 102.472C223.091 102.794 223.444 103.217 223.705 103.74C223.967 104.248 224.097 104.855 224.097 105.562C224.097 106.147 223.921 106.762 223.567 107.407C223.229 108.053 222.775 108.699 222.206 109.345C221.653 109.991 221.023 110.629 220.315 111.26C219.608 111.874 218.885 112.451 218.147 112.99C217.424 113.512 216.725 113.974 216.048 114.373C215.371 114.773 214.779 115.081 214.272 115.296C214.841 116.003 215.502 116.58 216.255 117.026C217.009 117.471 217.808 117.694 218.654 117.694C219.192 117.694 219.738 117.595 220.292 117.395C220.845 117.18 221.376 116.91 221.883 116.587C222.406 116.265 222.898 115.911 223.359 115.527C223.836 115.142 224.259 114.781 224.628 114.442L225.32 115.18ZM219.761 106.415C219.761 106.062 219.7 105.724 219.577 105.401C219.469 105.078 219.308 104.801 219.092 104.57C218.877 104.324 218.616 104.133 218.308 103.994C218.016 103.84 217.677 103.764 217.294 103.764C216.601 103.764 215.963 104.009 215.379 104.502C214.794 104.978 214.287 105.57 213.856 106.277C213.442 106.985 213.111 107.738 212.865 108.538C212.634 109.322 212.519 110.014 212.519 110.614C212.519 111.198 212.611 111.798 212.796 112.413C212.98 113.028 213.234 113.62 213.557 114.188C214.172 113.85 214.841 113.382 215.564 112.782C216.286 112.182 216.955 111.528 217.57 110.821C218.201 110.099 218.723 109.352 219.139 108.584C219.554 107.815 219.761 107.092 219.761 106.415Z" fill="black"/>
<path d="M245.318 102.287L243.588 106.3C243.249 106.024 242.873 105.785 242.458 105.585C242.058 105.37 241.643 105.263 241.212 105.263C240.874 105.263 240.551 105.331 240.243 105.47C239.951 105.609 239.682 105.793 239.436 106.024C239.19 106.254 238.974 106.516 238.79 106.807C238.605 107.085 238.452 107.361 238.329 107.639L237.867 108.953C238.191 109.629 238.506 110.275 238.814 110.891C239.075 111.413 239.343 111.944 239.621 112.482C239.897 113.004 240.128 113.42 240.313 113.728C240.605 114.174 240.897 114.635 241.189 115.111C241.481 115.573 241.804 115.995 242.158 116.38C242.311 116.549 242.496 116.665 242.711 116.726C242.942 116.772 243.15 116.795 243.334 116.795C243.627 116.795 243.903 116.757 244.165 116.68C244.426 116.603 244.672 116.503 244.903 116.38L245.479 117.118C245.264 117.457 245.002 117.795 244.695 118.133C244.388 118.472 244.05 118.779 243.681 119.055C243.326 119.332 242.942 119.555 242.527 119.724C242.127 119.909 241.719 120.002 241.305 120.002C240.936 120.002 240.605 119.94 240.313 119.817C240.036 119.709 239.782 119.563 239.552 119.379C239.321 119.179 239.106 118.948 238.906 118.686C238.706 118.425 238.498 118.156 238.283 117.879C238.114 117.618 237.929 117.302 237.729 116.933C237.545 116.549 237.353 116.157 237.153 115.758C236.953 115.358 236.753 114.973 236.553 114.604C236.353 114.219 236.161 113.897 235.976 113.635C235.9 113.897 235.83 114.158 235.769 114.419C235.707 114.635 235.638 114.858 235.561 115.088C235.484 115.319 235.415 115.496 235.353 115.619C235.123 116.111 234.831 116.618 234.477 117.141C234.124 117.664 233.716 118.141 233.254 118.571C232.808 118.986 232.317 119.332 231.778 119.609C231.24 119.87 230.671 120.002 230.072 120.002C229.533 120.002 229.01 119.894 228.503 119.678C227.996 119.478 227.527 119.21 227.096 118.871L228.55 115.042C229.041 115.349 229.579 115.626 230.164 115.873C230.748 116.103 231.332 116.218 231.917 116.218C232.101 116.218 232.293 116.203 232.493 116.172C232.693 116.127 232.885 116.065 233.07 115.988C233.27 115.896 233.447 115.788 233.6 115.665C233.755 115.527 233.87 115.365 233.947 115.18C234.054 114.98 234.169 114.719 234.293 114.397C234.415 114.073 234.538 113.751 234.662 113.427C234.8 113.058 234.939 112.666 235.077 112.252L230.74 105.308C230.54 105.078 230.294 104.894 230.002 104.755C229.725 104.601 229.433 104.524 229.126 104.524C228.865 104.524 228.618 104.578 228.388 104.686C228.157 104.778 227.934 104.909 227.718 105.078L227.096 104.271C227.311 103.948 227.565 103.632 227.857 103.325C228.165 103.002 228.496 102.718 228.849 102.472C229.203 102.21 229.579 102.002 229.979 101.849C230.379 101.68 230.787 101.595 231.202 101.595C231.709 101.595 232.178 101.726 232.609 101.987C233.039 102.233 233.439 102.54 233.808 102.91C234.177 103.279 234.516 103.679 234.823 104.109C235.13 104.54 235.407 104.939 235.653 105.308C235.776 105.477 235.907 105.693 236.046 105.954C236.199 106.201 236.345 106.446 236.484 106.692C236.653 106.969 236.814 107.269 236.968 107.592C237.122 107.223 237.283 106.854 237.452 106.485C237.591 106.177 237.729 105.862 237.867 105.539C238.022 105.201 238.16 104.909 238.283 104.663C238.514 104.232 238.775 103.832 239.067 103.463C239.359 103.094 239.682 102.772 240.036 102.495C240.405 102.218 240.805 102.002 241.235 101.849C241.666 101.68 242.135 101.595 242.642 101.595C243.119 101.595 243.58 101.656 244.026 101.78C244.472 101.903 244.903 102.072 245.318 102.287Z" fill="black"/>
<path d="M257.174 116.98C256.82 117.733 256.413 118.31 255.951 118.71C255.49 119.109 255.036 119.401 254.59 119.586C254.083 119.802 253.56 119.924 253.022 119.955C252.33 119.955 251.76 119.847 251.315 119.633C250.884 119.417 250.538 119.132 250.277 118.779C250.031 118.425 249.854 118.025 249.746 117.579C249.654 117.133 249.608 116.68 249.608 116.218V104.133H247.163L248.155 101.825H249.608V93.6604L253.829 92.1843V101.825H258.211L257.266 104.133H253.829V116.334C253.829 116.703 253.913 116.995 254.083 117.21C254.252 117.426 254.467 117.541 254.728 117.556C254.99 117.556 255.282 117.457 255.605 117.257C255.928 117.057 256.243 116.733 256.551 116.287L257.174 116.98Z" fill="black"/>
<path d="M271.382 113.312C271.382 114.266 271.205 115.158 270.851 115.988C270.498 116.818 270.014 117.541 269.398 118.156C268.799 118.771 268.076 119.255 267.23 119.609C266.4 119.963 265.5 120.14 264.532 120.14C264.116 120.14 263.662 120.101 263.171 120.024C262.694 119.948 262.217 119.832 261.74 119.678C261.263 119.525 260.81 119.332 260.379 119.102C259.964 118.871 259.618 118.594 259.341 118.272L262.064 114.719C262.248 115.011 262.471 115.335 262.732 115.688C263.009 116.026 263.309 116.341 263.632 116.634C263.97 116.926 264.324 117.172 264.693 117.372C265.077 117.556 265.462 117.649 265.846 117.649C266.292 117.649 266.707 117.572 267.091 117.418C267.491 117.264 267.838 117.049 268.129 116.772C268.421 116.48 268.652 116.141 268.822 115.758C268.991 115.373 269.075 114.95 269.075 114.489C269.075 113.873 268.86 113.312 268.43 112.805C268.014 112.282 267.514 111.782 266.931 111.305C266.361 110.814 265.761 110.313 265.131 109.806C264.516 109.284 264.017 108.715 263.632 108.099L261.233 111.605L260.333 110.936L263.101 107.108C262.886 106.662 262.717 106.193 262.594 105.7C262.471 105.209 262.409 104.716 262.409 104.224C262.409 103.809 262.478 103.371 262.617 102.91C262.755 102.448 262.955 102.025 263.216 101.641C263.478 101.257 263.794 100.942 264.163 100.695C264.546 100.434 264.985 100.303 265.477 100.303C265.954 100.303 266.353 100.449 266.677 100.742C267.015 101.034 267.184 101.441 267.184 101.964C267.184 102.241 267.138 102.518 267.046 102.794C266.953 103.071 266.838 103.348 266.699 103.625C266.561 103.902 266.407 104.171 266.238 104.432C266.069 104.678 265.908 104.909 265.754 105.124C266.123 105.647 266.522 106.1 266.953 106.485C267.384 106.869 267.807 107.23 268.222 107.569C268.637 107.907 269.037 108.245 269.421 108.584C269.805 108.922 270.136 109.307 270.413 109.737C270.705 110.168 270.936 110.668 271.105 111.236C271.29 111.805 271.382 112.497 271.382 113.312ZM266.146 102.379C266.146 102.164 266.069 102.002 265.915 101.895C265.777 101.787 265.615 101.734 265.431 101.734C265.169 101.734 264.985 101.825 264.877 102.01C264.769 102.18 264.716 102.371 264.716 102.587C264.716 102.894 264.762 103.194 264.854 103.486C264.962 103.778 265.093 104.055 265.246 104.317C265.308 104.209 265.385 104.071 265.477 103.902C265.585 103.733 265.685 103.555 265.777 103.371C265.885 103.171 265.969 102.986 266.031 102.817C266.108 102.633 266.146 102.487 266.146 102.379Z" fill="black"/>
</svg>
