<svg width="272" height="125" viewBox="0 0 272 125" fill="none" xmlns="http://www.w3.org/2000/svg">
<g clip-path="url(#clip0_2_4063)">
<path fill-rule="evenodd" clip-rule="evenodd" d="M43.5244 72.5619C35.9605 89.7815 29.0103 107.531 23.7895 121.941C23.1646 123.666 21.2599 124.557 19.5352 123.932C17.8105 123.307 16.919 121.403 17.5439 119.678C22.5824 105.772 29.2461 88.7031 36.548 71.9355C25.1071 70.8326 12.9955 69.298 0.214111 67.256L0.511145 60.6625C13.0188 59.8058 29.4559 57.5633 44.91 53.5288C48.4504 46.0847 52.0491 38.9818 55.6079 32.5647C62.5787 19.9952 69.6764 9.52338 76.1618 4.52388C79.3925 2.03325 83.2623 0.300277 87.2096 1.5427C91.0957 2.76583 93.6488 6.44454 95.3804 11.1662C99.062 21.2062 96.9171 29.9327 91.0632 37.0863C85.3836 44.028 76.3058 49.4086 66.0983 53.5805C60.9107 55.7008 55.335 57.547 49.6059 59.1421C48.5272 61.445 47.4545 63.7774 46.3909 66.1293C75.3293 68.404 99.538 67.8284 119.009 65.8205C147.96 62.8351 166.222 56.707 174.014 52.2378C175.605 51.3253 177.635 51.8754 178.548 53.4666C179.46 55.0579 178.911 57.0876 177.319 58.0002C168.381 63.1264 149.074 69.3983 119.691 72.4284C99.2686 74.5339 73.8745 75.0853 43.5244 72.5619ZM39.3764 65.5299C40.0164 64.1006 40.6603 62.6767 41.3073 61.2605C36.3987 62.4073 31.461 63.3833 26.6347 64.2024C30.9745 64.7055 35.2217 65.1467 39.3764 65.5299ZM53.4776 51.0643C56.9725 49.9577 60.3627 48.7485 63.585 47.4314C73.3926 43.4228 81.2724 38.5623 85.9224 32.8795C90.399 27.4085 91.9571 21.1271 89.1434 13.4529C87.6274 9.31738 86.084 8.15237 85.2153 7.87913C84.4086 7.62517 82.8659 7.74321 80.2177 9.78496C74.944 13.8502 68.4148 23.1685 61.4171 35.7865C58.7834 40.5356 56.1228 45.677 53.4776 51.0643Z" fill="#114E60"/>
<path d="M67.605 117.65C67.3742 118.096 67.0821 118.526 66.7284 118.941C66.3901 119.356 65.998 119.725 65.5521 120.049C65.1216 120.356 64.6603 120.61 64.1682 120.81C63.6761 120.994 63.1686 121.086 62.6458 121.086C61.7847 121.086 61.0313 120.925 60.3854 120.602C59.7549 120.279 59.2168 119.849 58.7708 119.31C58.3403 118.757 58.0174 118.127 57.8021 117.419C57.5868 116.712 57.4792 115.966 57.4792 115.182V106.255C57.2639 107.24 57.0179 108.3 56.7411 109.438C56.4643 110.561 56.126 111.683 55.7262 112.806C55.3264 113.913 54.8574 114.982 54.3192 116.012C53.781 117.042 53.1429 117.957 52.4048 118.757C51.682 119.541 50.8517 120.171 49.9137 120.648C48.9757 121.109 47.907 121.34 46.7076 121.34C45.2468 121.34 43.9397 121.063 42.7865 120.51C41.6332 119.956 40.6491 119.195 39.8341 118.226C39.0345 117.258 38.4194 116.112 37.9889 114.79C37.5736 113.451 37.3661 112.006 37.3661 110.453C37.3661 108.608 37.6582 106.763 38.2426 104.918C38.8269 103.057 39.6265 101.273 40.6414 99.5664C41.6716 97.8592 42.8864 96.2753 44.2857 94.8146C45.7004 93.3539 47.2381 92.0851 48.8988 91.009C50.5595 89.9328 52.3048 89.0944 54.1347 88.495C55.98 87.8949 57.8405 87.6108 59.7165 87.641H59.9933V88.6795C58.3788 88.7563 56.8257 89.1099 55.3341 89.7402C53.8425 90.3558 52.4432 91.1706 51.1361 92.1855C49.8445 93.1849 48.6605 94.3459 47.5841 95.6686C46.5077 96.9905 45.5851 98.3973 44.8163 99.889C44.0628 101.381 43.4707 102.918 43.0402 104.502C42.625 106.086 42.4175 107.647 42.4175 109.185C42.4175 109.784 42.4558 110.43 42.5328 111.122C42.6097 111.799 42.7403 112.483 42.9248 113.175C43.1094 113.852 43.3478 114.505 43.6399 115.135C43.932 115.751 44.2934 116.304 44.724 116.796C45.1699 117.273 45.685 117.657 46.2694 117.949C46.8537 118.226 47.5226 118.365 48.276 118.365C49.1833 118.365 50.006 118.087 50.7441 117.534C51.4822 116.98 52.151 116.235 52.7508 115.297C53.3504 114.359 53.881 113.267 54.3423 112.022C54.8189 110.776 55.2341 109.461 55.5878 108.077C55.9415 106.693 56.2336 105.287 56.4643 103.856C56.7103 102.411 56.9026 101.027 57.0409 99.7045C57.1947 98.3825 57.3023 97.1595 57.3639 96.0376C57.4407 94.8995 57.4792 93.9458 57.4792 93.1768L62.2538 91.4245V115.943C62.2538 116.25 62.2845 116.558 62.346 116.865C62.4075 117.173 62.5151 117.457 62.6689 117.718C62.8227 117.965 63.0149 118.165 63.2455 118.318C63.4916 118.472 63.7914 118.55 64.1451 118.55C64.6833 118.55 65.1907 118.388 65.6675 118.065C66.1441 117.742 66.5362 117.38 66.8438 116.98L67.605 117.65Z" fill="black"/>
<path d="M77.9842 118.111C77.7997 118.51 77.5613 118.888 77.2697 119.241C76.9922 119.595 76.677 119.91 76.3235 120.187C75.9699 120.463 75.578 120.679 75.147 120.832C74.7321 121.001 74.3018 121.086 73.8553 121.086C72.6563 121.086 71.7798 120.756 71.2262 120.094C70.688 119.418 70.4189 118.503 70.4189 117.349V89.2102L74.6628 87.734V117.465C74.6628 117.772 74.7321 118.057 74.8709 118.318C75.0089 118.564 75.2547 118.687 75.609 118.687C75.9625 118.687 76.2932 118.549 76.6003 118.272C76.9235 117.98 77.1767 117.695 77.3612 117.419L77.9842 118.111Z" fill="black"/>
<path d="M88.8253 118.111C88.6408 118.51 88.4024 118.888 88.1101 119.241C87.8333 119.595 87.5181 119.91 87.1646 120.187C86.811 120.463 86.4184 120.679 85.9881 120.832C85.5733 121.001 85.1422 121.086 84.6964 121.086C83.497 121.086 82.6209 120.756 82.0673 120.094C81.5285 119.418 81.2598 118.503 81.2598 117.349V89.2102L85.5039 87.734V117.465C85.5039 117.772 85.5733 118.057 85.7113 118.318C85.8493 118.564 86.0958 118.687 86.4494 118.687C86.8029 118.687 87.1336 118.549 87.4414 118.272C87.7639 117.98 88.0178 117.695 88.2023 117.419L88.8253 118.111Z" fill="black"/>
<path d="M98.7202 121.34C97.5821 121.34 96.5133 121.14 95.514 120.74C94.5301 120.325 93.6687 119.756 92.9306 119.034C92.208 118.311 91.6316 117.465 91.2005 116.496C90.7857 115.512 90.5783 114.443 90.5783 113.29C90.5783 111.983 90.7931 110.76 91.2241 109.623C91.6545 108.469 92.2464 107.432 93 106.509C93.7691 105.586 94.6681 104.787 95.6985 104.11C96.7444 103.433 97.8744 102.903 99.0893 102.519L99.758 103.326C99.0664 103.833 98.4206 104.418 97.8205 105.079C97.2212 105.724 96.6979 106.432 96.2521 107.201C95.8062 107.954 95.4527 108.754 95.1914 109.599C94.9301 110.43 94.7995 111.284 94.7995 112.16C94.7995 112.898 94.9065 113.674 95.122 114.49C95.3375 115.305 95.6601 116.05 96.0911 116.727C96.5215 117.403 97.0595 117.965 97.7054 118.411C98.3667 118.841 99.1277 119.057 99.989 119.057C100.757 119.057 101.419 118.919 101.972 118.641C102.541 118.365 103.01 117.988 103.379 117.511C103.748 117.034 104.026 116.481 104.21 115.85C104.395 115.204 104.486 114.528 104.486 113.821C104.486 112.99 104.325 112.144 104.002 111.284C103.68 110.407 103.234 109.599 102.665 108.861C102.111 108.123 101.457 107.508 100.704 107.016C99.9506 106.524 99.1432 106.24 98.2818 106.163C98.8199 105.548 99.4126 104.979 100.058 104.456C100.704 103.933 101.357 103.433 102.019 102.956C102.91 103.249 103.695 103.68 104.371 104.248C105.063 104.817 105.64 105.471 106.101 106.209C106.578 106.947 106.939 107.754 107.185 108.631C107.431 109.492 107.555 110.368 107.555 111.26C107.555 112.475 107.339 113.682 106.909 114.882C106.493 116.081 105.894 117.165 105.109 118.134C104.341 119.088 103.41 119.864 102.318 120.463C101.242 121.048 100.043 121.34 98.7202 121.34Z" fill="black"/>
<path d="M133.526 105.84C133.526 106.317 133.465 106.847 133.341 107.432C133.234 108.001 133.073 108.508 132.857 108.954L127.483 120.486C127.391 120.656 127.26 120.764 127.091 120.81C126.937 120.871 126.768 120.902 126.583 120.902C126.368 120.902 126.16 120.863 125.96 120.787C125.76 120.71 125.622 120.564 125.546 120.348L121.947 107.639L118.741 120.187C118.618 120.448 118.441 120.648 118.21 120.787C117.996 120.925 117.749 120.994 117.472 120.994C117.272 120.994 117.08 120.956 116.896 120.879C116.727 120.802 116.619 120.656 116.573 120.44L112.514 107.478C112.452 107.294 112.368 107.101 112.26 106.901C112.168 106.686 112.044 106.493 111.891 106.324C111.752 106.14 111.591 105.994 111.407 105.886C111.237 105.763 111.038 105.701 110.807 105.701C110.499 105.701 110.215 105.786 109.953 105.955C109.707 106.124 109.484 106.302 109.284 106.486L108.823 105.886C109.054 105.456 109.346 105.056 109.699 104.687C110.053 104.302 110.445 103.964 110.876 103.672C111.306 103.379 111.76 103.149 112.236 102.98C112.729 102.811 113.228 102.726 113.736 102.726C114.166 102.726 114.528 102.849 114.82 103.095C115.112 103.341 115.358 103.641 115.558 103.995C115.758 104.349 115.919 104.725 116.043 105.125C116.181 105.525 116.296 105.886 116.389 106.209C116.849 107.654 117.303 109.108 117.749 110.568C118.21 112.029 118.664 113.474 119.11 114.905L121.394 105.656L120.817 103.81L124.692 102.519L128.474 115.943L130.643 110.984C130.735 110.753 130.812 110.461 130.873 110.107C130.935 109.738 130.966 109.43 130.966 109.185C130.966 108.262 130.728 107.47 130.251 106.809C129.79 106.147 129.167 105.617 128.383 105.217L131.012 101.573C131.873 102.004 132.504 102.587 132.903 103.326C133.318 104.049 133.526 104.887 133.526 105.84Z" fill="black"/>
<path d="M152.509 116.312C151.971 117.004 151.379 117.65 150.733 118.249C150.103 118.849 149.41 119.372 148.657 119.818C147.919 120.263 147.135 120.618 146.304 120.879C145.474 121.14 144.613 121.271 143.721 121.271C142.583 121.271 141.537 121.071 140.584 120.671C139.631 120.256 138.808 119.695 138.116 118.987C137.424 118.265 136.886 117.419 136.502 116.45C136.117 115.466 135.925 114.412 135.925 113.29C135.925 112.367 136.055 111.46 136.317 110.568C136.579 109.677 136.948 108.838 137.424 108.054C137.901 107.27 138.462 106.547 139.108 105.886C139.769 105.21 140.492 104.633 141.276 104.157C142.06 103.68 142.891 103.311 143.767 103.049C144.644 102.772 145.543 102.634 146.466 102.634C147.111 102.634 147.719 102.711 148.288 102.865C148.872 103.018 149.387 103.264 149.833 103.603C150.279 103.926 150.633 104.349 150.895 104.871C151.156 105.379 151.287 105.986 151.287 106.693C151.287 107.278 151.109 107.893 150.756 108.539C150.418 109.185 149.964 109.83 149.395 110.476C148.841 111.122 148.211 111.76 147.504 112.391C146.796 113.006 146.073 113.582 145.335 114.121C144.613 114.643 143.913 115.105 143.236 115.504C142.56 115.904 141.968 116.212 141.46 116.427C142.029 117.135 142.691 117.711 143.444 118.157C144.198 118.603 144.997 118.826 145.843 118.826C146.381 118.826 146.927 118.726 147.48 118.526C148.034 118.311 148.565 118.042 149.072 117.718C149.595 117.396 150.087 117.042 150.549 116.658C151.025 116.273 151.448 115.912 151.817 115.573L152.509 116.312ZM146.95 107.547C146.95 107.193 146.888 106.855 146.766 106.532C146.658 106.209 146.496 105.932 146.282 105.701C146.066 105.456 145.805 105.264 145.497 105.125C145.205 104.971 144.867 104.895 144.482 104.895C143.79 104.895 143.152 105.14 142.567 105.633C141.984 106.109 141.476 106.701 141.046 107.409C140.63 108.116 140.299 108.869 140.054 109.669C139.823 110.453 139.707 111.145 139.707 111.745C139.707 112.329 139.8 112.929 139.984 113.544C140.169 114.159 140.423 114.751 140.746 115.32C141.361 114.982 142.029 114.513 142.752 113.913C143.475 113.313 144.144 112.659 144.759 111.952C145.389 111.23 145.913 110.484 146.327 109.715C146.742 108.946 146.95 108.224 146.95 107.547Z" fill="black"/>
<path d="M174.029 118.065C173.844 118.465 173.606 118.841 173.314 119.195C173.022 119.549 172.699 119.864 172.345 120.141C171.992 120.418 171.6 120.641 171.169 120.81C170.754 120.963 170.323 121.04 169.877 121.04C168.662 121.04 167.778 120.71 167.224 120.049C166.686 119.372 166.418 118.456 166.418 117.304V116.889C166.156 117.411 165.856 117.934 165.518 118.456C165.18 118.98 164.787 119.448 164.341 119.864C163.911 120.279 163.419 120.618 162.865 120.879C162.327 121.14 161.72 121.271 161.043 121.271C160.013 121.271 159.105 121.071 158.321 120.671C157.552 120.256 156.906 119.71 156.384 119.034C155.861 118.341 155.461 117.542 155.184 116.635C154.923 115.728 154.793 114.774 154.793 113.775C154.793 112.483 154.993 111.183 155.392 109.877C155.792 108.57 156.377 107.385 157.145 106.324C157.914 105.264 158.859 104.402 159.982 103.741C161.105 103.064 162.388 102.726 163.834 102.726C164.726 102.726 165.587 102.942 166.418 103.372V89.2102L170.684 87.734V117.419C170.684 117.727 170.754 118.011 170.892 118.272C171.046 118.518 171.292 118.641 171.63 118.641C171.984 118.641 172.314 118.503 172.622 118.226C172.93 117.934 173.176 117.642 173.36 117.349L174.029 118.065ZM166.418 111.122V106.209C166.064 105.856 165.664 105.563 165.218 105.332C164.787 105.102 164.311 104.986 163.788 104.986C162.881 104.986 162.112 105.233 161.481 105.724C160.851 106.217 160.336 106.831 159.936 107.57C159.536 108.308 159.244 109.108 159.059 109.968C158.875 110.814 158.783 111.606 158.783 112.344C158.783 112.929 158.837 113.59 158.944 114.328C159.067 115.051 159.267 115.735 159.544 116.381C159.836 117.011 160.212 117.549 160.674 117.996C161.151 118.426 161.742 118.641 162.45 118.641C163.019 118.641 163.511 118.518 163.926 118.272C164.357 118.011 164.718 117.68 165.01 117.281C165.302 116.865 165.541 116.396 165.725 115.873C165.91 115.335 166.048 114.79 166.141 114.236C166.249 113.682 166.317 113.136 166.348 112.598C166.395 112.045 166.418 111.552 166.418 111.122Z" fill="black"/>
<path d="M209.042 86.9494C208.55 87.6875 207.966 88.3791 207.29 89.0257C206.613 89.6708 205.867 90.2399 205.052 90.7322C204.252 91.2245 203.406 91.6164 202.515 91.9087C201.623 92.1855 200.731 92.3235 199.839 92.3235L199.309 92.37C198.725 93.1081 198.278 93.8233 197.971 94.5149C197.663 95.2065 197.51 96.0221 197.51 96.9602V111.698C197.51 113.744 197.071 115.566 196.194 117.165C195.334 118.749 194.058 120.117 192.366 121.271L191.605 120.395C191.866 120.102 192.074 119.772 192.228 119.403C192.381 119.018 192.497 118.626 192.573 118.226C192.65 117.826 192.697 117.427 192.712 117.027C192.742 116.611 192.758 116.219 192.758 115.85V99.6351C192.758 98.9125 192.904 98.2128 193.196 97.5367C193.504 96.8443 193.889 96.1911 194.349 95.5755C194.811 94.9607 195.318 94.3843 195.872 93.8462C196.441 93.3081 196.986 92.8158 197.51 92.37L189.875 92.3235C189.29 92.3235 188.768 92.3855 188.306 92.508C187.861 92.6158 187.445 92.7774 187.061 92.9922C186.677 93.2077 186.308 93.4771 185.954 93.7997C185.6 94.123 185.239 94.4994 184.87 94.9305L184.2 94.2152C184.708 93.5229 185.277 92.7929 185.908 92.0238C186.553 91.2547 187.246 90.555 187.984 89.9247C188.737 89.2944 189.537 88.7718 190.383 88.3562C191.243 87.9414 192.143 87.734 193.081 87.734H203.045C203.445 87.734 203.891 87.7104 204.383 87.6646C204.891 87.6181 205.398 87.5414 205.906 87.4336C206.413 87.3259 206.889 87.1878 207.335 87.0188C207.797 86.8343 208.181 86.6033 208.489 86.3265L209.042 86.9494Z" fill="black"/>
<path d="M225.534 116.312C224.996 117.004 224.404 117.65 223.758 118.249C223.128 118.849 222.436 119.372 221.682 119.818C220.944 120.263 220.16 120.618 219.329 120.879C218.499 121.14 217.638 121.271 216.746 121.271C215.609 121.271 214.563 121.071 213.609 120.671C212.656 120.256 211.833 119.695 211.141 118.987C210.449 118.265 209.911 117.419 209.527 116.45C209.142 115.466 208.95 114.412 208.95 113.29C208.95 112.367 209.081 111.46 209.342 110.568C209.604 109.677 209.973 108.838 210.449 108.054C210.926 107.27 211.487 106.547 212.133 105.886C212.794 105.21 213.517 104.633 214.301 104.157C215.085 103.68 215.916 103.311 216.793 103.049C217.669 102.772 218.568 102.634 219.491 102.634C220.137 102.634 220.744 102.711 221.313 102.865C221.897 103.018 222.412 103.264 222.859 103.603C223.305 103.926 223.658 104.349 223.92 104.871C224.181 105.379 224.312 105.986 224.312 106.693C224.312 107.278 224.135 107.893 223.782 108.539C223.443 109.185 222.99 109.83 222.421 110.476C221.867 111.122 221.237 111.76 220.529 112.391C219.822 113.006 219.099 113.582 218.361 114.121C217.638 114.643 216.939 115.105 216.262 115.504C215.585 115.904 214.993 116.212 214.486 116.427C215.055 117.135 215.716 117.711 216.469 118.157C217.223 118.603 218.022 118.826 218.868 118.826C219.406 118.826 219.952 118.726 220.506 118.526C221.059 118.311 221.59 118.042 222.097 117.718C222.621 117.396 223.112 117.042 223.573 116.658C224.05 116.273 224.473 115.912 224.842 115.573L225.534 116.312ZM219.975 107.547C219.975 107.193 219.914 106.855 219.791 106.532C219.683 106.209 219.522 105.932 219.307 105.701C219.091 105.456 218.83 105.264 218.522 105.125C218.23 104.971 217.892 104.895 217.508 104.895C216.815 104.895 216.177 105.14 215.593 105.633C215.009 106.109 214.502 106.701 214.07 107.409C213.656 108.116 213.325 108.869 213.079 109.669C212.848 110.453 212.733 111.145 212.733 111.745C212.733 112.329 212.825 112.929 213.01 113.544C213.194 114.159 213.448 114.751 213.771 115.32C214.386 114.982 215.055 114.513 215.778 113.913C216.5 113.313 217.169 112.659 217.784 111.952C218.415 111.23 218.937 110.484 219.353 109.715C219.768 108.946 219.975 108.224 219.975 107.547Z" fill="black"/>
<path d="M245.532 103.419L243.802 107.432C243.464 107.155 243.087 106.916 242.672 106.716C242.272 106.502 241.857 106.394 241.426 106.394C241.088 106.394 240.765 106.462 240.457 106.601C240.165 106.74 239.896 106.924 239.651 107.155C239.404 107.385 239.189 107.647 239.004 107.939C238.819 108.216 238.666 108.492 238.543 108.77L238.081 110.084C238.405 110.76 238.72 111.406 239.028 112.022C239.289 112.544 239.558 113.075 239.835 113.613C240.111 114.136 240.342 114.551 240.527 114.859C240.819 115.305 241.111 115.766 241.403 116.242C241.695 116.704 242.018 117.126 242.372 117.511C242.525 117.68 242.71 117.796 242.926 117.857C243.157 117.903 243.364 117.927 243.548 117.927C243.841 117.927 244.118 117.888 244.379 117.811C244.64 117.734 244.886 117.634 245.117 117.511L245.693 118.249C245.478 118.588 245.217 118.926 244.909 119.264C244.602 119.603 244.264 119.91 243.895 120.187C243.54 120.463 243.157 120.686 242.741 120.855C242.341 121.04 241.933 121.133 241.519 121.133C241.15 121.133 240.819 121.071 240.527 120.948C240.25 120.841 239.996 120.694 239.766 120.51C239.535 120.31 239.32 120.079 239.12 119.818C238.92 119.556 238.712 119.288 238.497 119.01C238.328 118.749 238.143 118.434 237.943 118.065C237.759 117.68 237.567 117.288 237.367 116.889C237.167 116.489 236.967 116.104 236.767 115.735C236.567 115.351 236.375 115.028 236.19 114.766C236.114 115.028 236.044 115.289 235.983 115.551C235.921 115.766 235.852 115.989 235.776 116.219C235.698 116.45 235.629 116.627 235.567 116.75C235.337 117.242 235.045 117.749 234.691 118.272C234.338 118.795 233.93 119.272 233.468 119.702C233.022 120.117 232.531 120.463 231.992 120.74C231.454 121.001 230.885 121.133 230.286 121.133C229.748 121.133 229.224 121.025 228.717 120.81C228.21 120.609 227.741 120.341 227.31 120.002L228.764 116.174C229.255 116.481 229.793 116.757 230.378 117.004C230.962 117.234 231.546 117.349 232.131 117.349C232.315 117.349 232.507 117.335 232.707 117.304C232.907 117.258 233.099 117.196 233.284 117.119C233.484 117.027 233.661 116.919 233.814 116.796C233.969 116.658 234.084 116.496 234.161 116.312C234.268 116.112 234.384 115.85 234.507 115.528C234.629 115.204 234.753 114.882 234.876 114.559C235.014 114.19 235.153 113.798 235.291 113.383L230.954 106.44C230.754 106.209 230.509 106.025 230.216 105.886C229.939 105.732 229.647 105.656 229.34 105.656C229.079 105.656 228.832 105.71 228.602 105.817C228.371 105.909 228.148 106.04 227.933 106.209L227.31 105.402C227.525 105.079 227.779 104.763 228.071 104.456C228.379 104.133 228.71 103.849 229.063 103.603C229.417 103.341 229.793 103.134 230.193 102.98C230.593 102.811 231.001 102.726 231.416 102.726C231.923 102.726 232.392 102.857 232.823 103.118C233.253 103.365 233.653 103.672 234.022 104.041C234.391 104.41 234.73 104.81 235.037 105.24C235.345 105.671 235.621 106.071 235.867 106.44C235.99 106.609 236.121 106.824 236.26 107.085C236.413 107.332 236.559 107.578 236.698 107.823C236.867 108.1 237.028 108.401 237.182 108.723C237.336 108.354 237.498 107.985 237.667 107.616C237.805 107.308 237.943 106.993 238.081 106.671C238.236 106.332 238.374 106.04 238.497 105.794C238.728 105.363 238.989 104.963 239.282 104.594C239.573 104.225 239.896 103.903 240.25 103.626C240.619 103.349 241.019 103.134 241.449 102.98C241.88 102.811 242.349 102.726 242.856 102.726C243.333 102.726 243.794 102.787 244.24 102.911C244.686 103.034 245.117 103.203 245.532 103.419Z" fill="black"/>
<path d="M257.388 118.111C257.034 118.865 256.627 119.441 256.165 119.841C255.704 120.24 255.25 120.533 254.804 120.717C254.297 120.933 253.774 121.055 253.236 121.086C252.544 121.086 251.975 120.978 251.529 120.764C251.098 120.548 250.752 120.263 250.491 119.91C250.245 119.556 250.068 119.156 249.96 118.71C249.868 118.265 249.822 117.811 249.822 117.349V105.264H247.377L248.369 102.956H249.822V94.7916L254.043 93.3154V102.956H258.426L257.48 105.264H254.043V117.465C254.043 117.834 254.128 118.126 254.297 118.341C254.466 118.557 254.681 118.672 254.942 118.687C255.204 118.687 255.496 118.588 255.819 118.388C256.142 118.188 256.457 117.864 256.765 117.419L257.388 118.111Z" fill="black"/>
<path d="M271.596 114.443C271.596 115.397 271.419 116.289 271.065 117.119C270.712 117.949 270.228 118.672 269.612 119.288C269.013 119.902 268.29 120.387 267.444 120.74C266.614 121.094 265.714 121.271 264.746 121.271C264.33 121.271 263.876 121.232 263.385 121.156C262.908 121.079 262.431 120.963 261.954 120.81C261.478 120.656 261.024 120.463 260.593 120.233C260.179 120.002 259.832 119.725 259.556 119.403L262.278 115.85C262.462 116.143 262.685 116.466 262.946 116.819C263.223 117.157 263.523 117.473 263.846 117.765C264.184 118.057 264.538 118.303 264.907 118.503C265.291 118.687 265.676 118.78 266.06 118.78C266.506 118.78 266.921 118.703 267.306 118.549C267.706 118.395 268.052 118.18 268.343 117.903C268.636 117.611 268.867 117.273 269.036 116.889C269.205 116.504 269.29 116.081 269.29 115.62C269.29 115.004 269.074 114.443 268.644 113.936C268.228 113.413 267.728 112.913 267.145 112.437C266.576 111.945 265.975 111.445 265.345 110.937C264.73 110.415 264.231 109.846 263.846 109.23L261.447 112.736L260.548 112.068L263.315 108.239C263.1 107.793 262.931 107.324 262.808 106.831C262.685 106.34 262.623 105.848 262.623 105.355C262.623 104.94 262.692 104.502 262.831 104.041C262.969 103.579 263.169 103.156 263.431 102.772C263.692 102.388 264.008 102.073 264.377 101.826C264.761 101.565 265.199 101.435 265.691 101.435C266.168 101.435 266.567 101.581 266.891 101.873C267.229 102.165 267.398 102.573 267.398 103.095C267.398 103.372 267.352 103.649 267.26 103.926C267.168 104.202 267.052 104.479 266.914 104.756C266.776 105.033 266.621 105.302 266.452 105.563C266.283 105.809 266.122 106.04 265.968 106.255C266.337 106.778 266.736 107.232 267.168 107.616C267.598 108.001 268.021 108.362 268.436 108.7C268.851 109.038 269.251 109.376 269.635 109.715C270.019 110.053 270.35 110.438 270.627 110.868C270.919 111.299 271.15 111.799 271.319 112.367C271.504 112.936 271.596 113.629 271.596 114.443ZM266.36 103.51C266.36 103.295 266.283 103.134 266.129 103.026C265.991 102.918 265.829 102.865 265.645 102.865C265.384 102.865 265.199 102.956 265.091 103.141C264.984 103.311 264.93 103.503 264.93 103.718C264.93 104.025 264.976 104.326 265.068 104.617C265.176 104.909 265.307 105.186 265.46 105.448C265.522 105.341 265.599 105.202 265.691 105.033C265.799 104.864 265.899 104.687 265.991 104.502C266.099 104.302 266.183 104.117 266.245 103.948C266.322 103.764 266.36 103.618 266.36 103.51Z" fill="black"/>
</g>
<defs>
<clipPath id="clip0_2_4063">
<rect width="271.619" height="124" fill="white" transform="translate(0 0.5)"/>
</clipPath>
</defs>
</svg>
